<?xml version="1.0" standalone="no"?>
<!DOCTYPE svg PUBLIC "-//W3C//DTD SVG 20010904//EN"
 "http://www.w3.org/TR/2001/REC-SVG-20010904/DTD/svg10.dtd">
<svg version="1.0" xmlns="http://www.w3.org/2000/svg"
 width="1500.000000pt" height="1500.000000pt" viewBox="0 0 1500.000000 1500.000000"
 preserveAspectRatio="xMidYMid meet">
<metadata>
Created by potrace 1.16, written by Peter Selinger 2001-2019
</metadata>
<g transform="translate(0.000000,1500.000000) scale(0.100000,-0.100000)"
fill="#FFFFFF" stroke="none">
<path d="M0 7500 l0 -7500 7500 0 7500 0 0 7500 0 7500 -7500 0 -7500 0 0
-7500z m7777 2343 c28 -49 187 -324 353 -613 167 -289 309 -532 316 -540 11
-13 7 -26 -30 -85 -69 -114 -446 -771 -446 -779 0 -14 179 -211 252 -277 186
-168 356 -277 573 -368 l50 -22 -40 6 c-22 4 -89 27 -150 51 -162 67 -149 75
-155 -96 l-6 -145 -2 125 c-3 187 -5 192 -68 234 l-54 36 -2 -105 c-2 -139 -4
-164 -11 -172 -4 -3 -7 61 -7 143 l0 150 -50 37 c-27 20 -52 37 -55 37 -3 0
-6 -96 -6 -212 -1 -147 -4 -194 -9 -153 -4 33 -8 134 -9 225 l-1 164 -52 53
c-29 29 -55 53 -59 53 -3 0 -7 -91 -8 -202 -1 -112 -4 -204 -5 -206 -2 -2 -7
97 -11 220 l-7 223 -64 70 -63 70 -2 -315 c-2 -346 -11 -301 -24 127 l-7 232
-54 72 -54 73 -2 -135 c-2 -74 -1 -218 1 -320 2 -117 0 -189 -6 -192 -11 -7
-16 91 -29 508 l-6 200 -47 77 c-25 43 -49 78 -53 78 -5 0 -8 -181 -8 -402 0
-221 -2 -399 -6 -396 -3 3 -9 201 -14 441 l-9 435 -43 78 -43 79 -5 -520 c-6
-593 -14 -543 -30 195 l-10 435 -37 93 c-20 50 -40 92 -45 92 -4 0 -9 -285
-10 -632 -1 -745 -11 -684 -28 182 l-12 615 -33 140 c-19 77 -42 185 -51 240
-9 55 -18 102 -20 104 -2 2 -4 -57 -4 -132 0 -115 2 -137 15 -137 13 0 15 -35
15 -254 0 -216 2 -255 15 -260 13 -5 15 -49 15 -311 0 -263 2 -305 15 -305 13
0 15 -48 17 -352 l3 -353 428 -219 c235 -121 425 -221 423 -223 -2 -2 -223 84
-492 190 l-489 194 -3 301 c-2 259 -4 302 -17 302 -11 0 -15 -15 -17 -62 l-2
-63 -3 63 c-5 79 -23 81 -23 2 0 -53 -2 -60 -20 -60 -19 0 -20 -7 -20 -135 0
-74 -4 -135 -8 -135 -5 0 -16 8 -24 18 -11 12 -15 40 -14 104 l1 88 -67 0 -68
0 0 -93 c0 -59 -4 -97 -12 -105 -29 -29 -33 -11 -30 123 3 115 1 135 -12 135
-12 0 -16 -18 -19 -92 -2 -66 -3 -48 -5 60 -1 93 -6 152 -12 152 -5 0 -11 -28
-12 -62 l-2 -63 -3 63 c-3 46 -8 62 -18 62 -12 0 -15 -47 -17 -301 l-3 -301
-110 -45 c-888 -360 -884 -358 -870 -345 6 5 198 108 428 228 l417 219 0 348
c0 340 0 349 20 354 19 5 20 14 20 309 0 262 2 305 15 310 13 5 15 44 15 260
0 219 2 254 15 254 12 0 15 18 15 100 0 59 -4 100 -10 100 -10 0 -11 -4 -35
-130 -9 -47 -27 -125 -41 -175 -23 -87 -24 -110 -35 -620 -18 -924 -26 -997
-27 -282 -1 350 -6 637 -10 637 -4 0 -25 -44 -47 -97 l-39 -98 -8 -390 c-15
-722 -25 -805 -27 -232 0 279 -4 507 -9 507 -4 0 -26 -38 -50 -84 l-42 -83 -1
-264 c-1 -145 -5 -336 -9 -424 -6 -151 -7 -143 -10 145 -2 168 -4 344 -4 392
-1 49 -3 88 -6 88 -3 0 -27 -34 -53 -76 l-48 -77 -10 -331 c-15 -494 -26 -537
-28 -108 0 199 -4 362 -8 362 -5 -1 -30 -30 -56 -66 l-48 -64 -10 -313 c-5
-171 -11 -319 -13 -327 -2 -8 -4 122 -5 288 0 169 -5 302 -10 300 -5 -1 -34
-33 -65 -70 l-57 -67 -9 -251 c-5 -139 -11 -255 -14 -258 -4 -3 -6 101 -6 231
0 131 -3 237 -6 237 -3 0 -27 -19 -55 -42 l-49 -43 -1 -125 c-1 -69 -4 -165
-8 -215 -7 -75 -8 -57 -9 113 -1 114 -6 202 -11 202 -5 0 -11 -4 -13 -8 -1 -4
-22 -23 -45 -42 l-43 -33 -1 -126 c-1 -69 -5 -157 -9 -196 -5 -54 -7 -27 -8
113 -1 100 -5 182 -9 182 -4 0 -31 -14 -60 -32 l-53 -32 -2 -136 c-1 -74 -3
-112 -5 -85 -9 150 -15 195 -27 195 -7 0 -46 -15 -87 -34 -80 -37 -193 -76
-218 -76 -9 0 18 15 60 34 260 113 478 273 699 513 47 51 86 99 88 107 2 8
-30 72 -71 143 -41 70 -149 257 -241 416 -91 158 -166 293 -166 300 0 6 16 39
36 72 34 57 103 176 379 655 65 113 148 257 185 320 36 63 79 136 94 163 l27
47 722 0 723 0 51 -87z m-817 -2598 c0 -2 -39 -37 -87 -76 -49 -40 -106 -89
-128 -110 -49 -46 -184 -161 -247 -213 -26 -21 -53 -36 -59 -34 -24 8 256 254
435 381 78 57 86 61 86 52z m237 -91 c118 -89 322 -262 367 -313 34 -37 11
-32 -40 10 -113 94 -141 117 -222 187 -47 40 -120 100 -163 135 -68 54 -90 77
-75 77 3 0 62 -43 133 -96z m-107 -114 c11 -6 24 -19 30 -30 14 -26 15 -192 2
-217 -9 -17 -8 -24 9 -39 12 -11 27 -35 35 -54 10 -24 29 -43 62 -62 66 -37
90 -66 107 -129 27 -98 63 -324 69 -434 1 -11 8 -31 16 -45 27 -48 10 -411
-20 -430 -28 -19 -84 -30 -94 -20 -6 6 -11 56 -12 112 -1 65 -7 116 -17 138
-8 19 -18 54 -22 78 -7 43 -7 43 -20 18 -10 -19 -11 -35 -3 -66 8 -30 8 -65
-1 -123 -6 -45 -11 -108 -11 -141 0 -87 -30 -378 -42 -399 -5 -10 -11 -110
-12 -221 -2 -192 -4 -205 -24 -231 -32 -41 -27 -119 8 -128 21 -5 35 -59 22
-83 -10 -19 -111 -54 -154 -54 -43 0 -60 25 -52 76 4 30 1 57 -12 89 -15 40
-16 53 -5 98 18 71 30 348 19 400 -5 23 -9 101 -9 172 1 102 -3 142 -17 185
-19 54 -19 54 -33 30 -9 -16 -15 -63 -16 -129 -1 -57 -7 -118 -13 -135 -22
-67 -30 -138 -20 -180 5 -23 9 -96 8 -161 -1 -184 -1 -285 1 -338 3 -65 -11
-81 -63 -72 -76 12 -102 55 -80 136 21 80 18 95 -15 109 -50 20 -58 86 -49
375 2 61 -1 116 -6 123 -6 9 -6 20 1 31 11 18 9 306 -3 343 -4 13 -12 16 -30
12 -30 -8 -68 1 -88 22 -13 13 -15 33 -9 121 4 77 3 107 -6 112 -7 4 -16 39
-22 77 -9 65 -8 69 13 85 18 14 20 20 10 32 -10 12 -9 27 8 76 11 33 20 82 20
108 0 26 13 91 29 143 17 52 33 107 36 122 8 43 64 98 130 130 33 15 67 28 75
28 23 1 45 22 64 62 16 34 16 38 1 62 -15 22 -16 36 -7 103 10 69 15 81 43
107 30 27 36 28 91 22 32 -3 68 -10 78 -16z m-2840 -485 l0 -115 -565 0 -565
0 0 -370 0 -370 555 0 555 0 0 -110 0 -110 -555 0 -555 0 0 -385 0 -385 568
-2 567 -3 3 -112 3 -113 -686 0 -685 0 0 1095 0 1095 680 0 680 0 0 -115z
m806 -825 c206 -514 377 -944 382 -954 7 -16 66 123 257 605 136 343 307 773
379 954 l132 330 123 3 c97 2 122 0 118 -10 -3 -7 -156 -389 -340 -848 -185
-459 -380 -945 -434 -1080 l-99 -245 -126 -3 c-95 -2 -127 1 -131 10 -2 7
-101 249 -220 538 -118 289 -317 773 -441 1077 -124 303 -226 554 -226 558 0
3 57 4 127 3 l126 -3 373 -935z m4042 828 l-3 -113 -540 -5 -540 -5 -45 -25
c-87 -49 -120 -144 -120 -345 1 -204 29 -284 115 -329 38 -20 59 -21 470 -27
418 -5 432 -6 495 -29 51 -18 78 -37 127 -85 53 -53 65 -72 85 -136 22 -70 23
-89 23 -349 0 -238 -2 -283 -18 -335 -48 -156 -141 -242 -299 -280 -52 -12
-166 -15 -636 -15 l-573 0 3 113 3 112 505 2 c620 2 625 3 684 37 89 52 115
139 116 381 0 224 -26 302 -115 349 -38 20 -59 21 -470 26 -412 6 -433 7 -490
28 -115 42 -185 113 -222 225 -25 76 -31 494 -9 590 31 131 88 214 184 265
111 59 124 60 725 61 l548 1 -3 -112z m1752 -3 l0 -115 -565 0 -565 0 0 -370
0 -370 555 0 555 0 0 -110 0 -110 -555 0 -555 0 0 -387 0 -388 570 2 570 2 0
-114 0 -115 -685 0 -685 0 0 1095 0 1095 680 0 680 0 0 -115z m560 -867 l0
-983 537 2 c296 2 548 0 561 -3 21 -6 22 -11 22 -115 l0 -109 -675 0 -675 0 0
1095 0 1095 115 0 115 0 0 -982z"/>
<path d="M6273 9838 c-16 -29 -92 -161 -168 -293 -76 -132 -196 -339 -265
-460 -70 -121 -153 -264 -184 -317 l-56 -97 178 -308 c98 -169 205 -354 237
-411 l59 -103 21 27 c203 271 339 521 450 829 81 223 159 565 180 785 13 142
12 140 55 140 29 0 39 -4 43 -20 5 -19 14 -20 186 -20 174 0 181 1 181 20 0
17 7 20 44 20 l44 0 7 -72 c48 -517 210 -1019 462 -1427 83 -134 185 -273 194
-263 4 4 33 52 65 107 31 55 116 201 187 325 72 124 150 258 173 298 l42 74
-85 146 c-88 151 -128 221 -368 637 -76 132 -163 283 -194 335 l-56 95 -702 3
-701 2 -29 -52z"/>
<path d="M6820 9285 l0 -205 190 0 190 0 0 205 0 205 -190 0 -190 0 0 -205z"/>
<path d="M6820 8753 l0 -193 188 2 187 3 0 190 0 190 -187 1 -188 1 0 -194z"/>
<path d="M6810 8401 c0 -15 23 -131 47 -238 3 -12 12 -28 20 -35 12 -10 18 -9
29 7 8 10 14 29 14 41 0 25 21 45 28 26 5 -15 108 -16 117 -2 11 18 22 10 29
-22 7 -33 23 -58 38 -58 15 0 35 60 57 169 12 57 21 109 21 117 0 12 -36 14
-200 14 -189 0 -200 -1 -200 -19z"/>
</g>
</svg>
